<?xml version="1.0" encoding="UTF-8"?>
<svg id="Layer_2" data-name="Layer 2" xmlns="http:
  <defs>
    <style>
      .cls-1 {
        fill: #c64262;
        fill-rule: evenodd;
      }

      .cls-2 {
        clip-path: url(#clippath-1);
      }

      .cls-3 {
        fill: #c03355;
      }

      .cls-4 {
        clip-path: url(#clippath-2);
      }

      .cls-5 {
        clip-path: url(#clippath);
      }
    </style>
    <clipPath id="clippath">
      <path class="cls-3" d="M720.03,0v618.54h-197.23V231.31c0-13.32-2.94-25.93-8.15-37.29-8.92-19.52-24.73-35.28-44.25-44.25-11.36-5.22-23.97-8.15-37.29-8.15h-32.02v-76.38c0-36.04,29.19-65.24,65.24-65.24h253.71Z"/>
    </clipPath>
    <clipPath id="clippath-1">
      <path class="cls-3" d="M506.5,231.31v387.23h-179.4v-249.47c0-13.32-2.94-25.93-8.15-37.29-8.92-19.52-24.73-35.34-44.25-44.25-11.36-5.22-23.97-8.15-37.29-8.15h-41.7v-48.06c0-1.79.05-3.59.16-5.33,2.5-38.71,36.21-68.06,74.97-68.06h162.27c40.39,0,73.39,33,73.39,73.39Z"/>
    </clipPath>
    <clipPath id="clippath-2">
      <path class="cls-3" d="M310.79,369.07v249.47H0v-249.47c0-1.79.06-3.57.17-5.34,2.5-38.7,36.18-68.05,74.97-68.05h162.26c40.53,0,73.39,32.86,73.39,73.39Z"/>
    </clipPath>
  </defs>
  <g id="Layer_1-2" data-name="Layer 1">
    <g>
      <g>
        <path class="cls-3" d="M720.03,0v618.54h-197.23V231.31c0-13.32-2.94-25.93-8.15-37.29-8.92-19.52-24.73-35.28-44.25-44.25-11.36-5.22-23.97-8.15-37.29-8.15h-32.02v-76.38c0-36.04,29.19-65.24,65.24-65.24h253.71Z"/>
        <g class="cls-5">
          <path class="cls-1" d="M0,618.54s66.77-160.35,310.79-161.43c0,0,138.94,24,195.71-68.88,0,0,40.51-150.86,213.54-137.57v367.88H0Z"/>
        </g>
      </g>
      <g>
        <path class="cls-3" d="M506.5,231.31v387.23h-179.4v-249.47c0-13.32-2.94-25.93-8.15-37.29-8.92-19.52-24.73-35.34-44.25-44.25-11.36-5.22-23.97-8.15-37.29-8.15h-41.7v-48.06c0-1.79.05-3.59.16-5.33,2.5-38.71,36.21-68.06,74.97-68.06h162.27c40.39,0,73.39,33,73.39,73.39Z"/>
        <g class="cls-2">
          <path class="cls-1" d="M0,618.54s66.77-160.35,310.79-161.43c0,0,138.94,24,195.71-68.88,0,0,40.51-150.86,213.54-137.57v367.88H0Z"/>
        </g>
      </g>
      <g>
        <path class="cls-3" d="M310.79,369.07v249.47H0v-249.47c0-1.79.06-3.57.17-5.34,2.5-38.7,36.18-68.05,74.97-68.05h162.26c40.53,0,73.39,32.86,73.39,73.39Z"/>
        <g class="cls-4">
          <path class="cls-1" d="M0,618.54s66.77-160.35,310.79-161.43c0,0,138.94,24,195.71-68.88,0,0,40.51-150.86,213.54-137.57v367.88H0Z"/>
        </g>
      </g>
    </g>
  </g>
</svg>